<svg xmlns="http://www.w3.org/2000/svg" xmlns:xlink="http://www.w3.org/1999/xlink" width="32px" height="32px" viewBox="0 0 32 32" version="1.1"><script xmlns=""/>
    <title>Logo_Roomex</title>
    <desc>Created with Sketch.</desc>
    <g id="Logo_Roomex" stroke="none" stroke-width="1" fill="none" fill-rule="evenodd">
        <g id="Group-3" fill="#00B7B1">
            <path d="M18.4969128,22.73773 L21.9321873,28.398853 C26.4941258,26.1526373 29.3849808,21.5538438 29.3849808,16.3999621 C29.3849808,9.01926217 23.3805244,3.01480575 16.0001477,3.01480575 C8.6194478,3.01480575 2.61499138,9.01926217 2.61499138,16.3999621 C2.61499138,21.2021048 5.136973,25.5364475 9.181325,27.9197379 L9.181325,16.3999621 C9.181325,12.6401049 12.2399672,9.58113937 16.0001477,9.58113937 C19.760005,9.58113937 22.8189705,12.6401049 22.8189705,16.3999621 C22.8189705,19.2407072 21.0305328,21.7310064 18.4969128,22.73773 M10.6914104,31.5124544 L10.2717806,31.3420808 C4.13509875,28.8559844 -0.0353361711,22.9329969 0.000225677,16.3123506 C0.0496889749,7.13965685 7.85713109,-0.230374535 17.1814477,0.442714264 C25.0836136,1.01299699 31.4604996,7.4344969 31.9661244,15.3408656 C32.4154968,22.3707964 28.3588598,28.7108274 21.892746,31.2745133 L21.496393,31.431632 C21.132369,31.5758192 20.7172652,31.4364814 20.5142394,31.1018767 L14.6911484,21.5069668 C14.4819801,21.1626634 14.7089294,20.7181403 15.1107782,20.6854881 L16.2060832,20.5965835 C18.3456133,20.4226537 20.1123905,18.7205343 20.2003253,16.5755083 C20.3034547,14.0619322 18.1855849,12.004841 15.6513183,12.2104531 C13.5243965,12.3827664 11.7960907,14.3949204 11.7960907,16.5292779 L11.7960907,30.7682419 C11.7960907,31.3378781 11.2196655,31.7261488 10.6914104,31.5124544" id="Fill-1"/>
        </g>
    </g>
</svg>
